<svg width="248" height="87" viewBox="0 0 248 87" fill="none" xmlns="http://www.w3.org/2000/svg">
<g filter="url(#filter0_f_33_5)">
<path d="M38.6818 61H25.25V26.0909H38.5455C42.1364 26.0909 45.2386 26.7898 47.8523 28.1875C50.4773 29.5739 52.5 31.5739 53.9205 34.1875C55.3523 36.7898 56.0682 39.9091 56.0682 43.5455C56.0682 47.1818 55.358 50.3068 53.9375 52.9205C52.517 55.5227 50.5057 57.5227 47.9034 58.9205C45.3011 60.3068 42.2273 61 38.6818 61ZM34.7273 52.9545H38.3409C40.0682 52.9545 41.5398 52.6761 42.7557 52.1193C43.983 51.5625 44.9148 50.6023 45.5511 49.2386C46.1989 47.875 46.5227 45.9773 46.5227 43.5455C46.5227 41.1136 46.1932 39.2159 45.5341 37.8523C44.8864 36.4886 43.9318 35.5284 42.6705 34.9716C41.4205 34.4148 39.8864 34.1364 38.0682 34.1364H34.7273V52.9545ZM69.9304 26.0909V61H60.4531V26.0909H69.9304ZM97.0923 37.6136C96.9446 37.0114 96.7116 36.483 96.3935 36.0284C96.0753 35.5625 95.6776 35.1705 95.2003 34.8523C94.7344 34.5227 94.1889 34.2784 93.5639 34.1193C92.9503 33.9489 92.2741 33.8636 91.5355 33.8636C89.9446 33.8636 88.5866 34.2443 87.4616 35.0057C86.348 35.767 85.4957 36.8636 84.9048 38.2955C84.3253 39.7273 84.0355 41.4545 84.0355 43.4773C84.0355 45.5227 84.3139 47.2727 84.8707 48.7273C85.4276 50.1818 86.2571 51.2955 87.3594 52.0682C88.4616 52.8409 89.831 53.2273 91.4673 53.2273C92.9105 53.2273 94.1094 53.017 95.0639 52.5966C96.0298 52.1761 96.7514 51.5795 97.2287 50.8068C97.706 50.0341 97.9446 49.125 97.9446 48.0795L99.581 48.25H91.6037V41.5H107.081V46.3409C107.081 49.5227 106.405 52.2443 105.053 54.5057C103.712 56.7557 101.859 58.483 99.4957 59.6875C97.1435 60.8807 94.4446 61.4773 91.3991 61.4773C88.0014 61.4773 85.0185 60.7557 82.4503 59.3125C79.8821 57.8693 77.8764 55.8125 76.4332 53.142C75.0014 50.4716 74.2855 47.2955 74.2855 43.6136C74.2855 40.7273 74.723 38.1705 75.598 35.9432C76.4844 33.7159 77.7116 31.8352 79.2798 30.3011C80.848 28.7557 82.6605 27.5909 84.7173 26.8068C86.7741 26.0114 88.9787 25.6136 91.331 25.6136C93.3991 25.6136 95.3196 25.9091 97.0923 26.5C98.8764 27.0795 100.45 27.9091 101.814 28.9886C103.189 30.0568 104.297 31.3239 105.138 32.7898C105.979 34.2557 106.49 35.8636 106.672 37.6136H97.0923ZM120.977 26.0909V61H111.5V26.0909H120.977ZM125.469 61V26.0909H140.537C143.128 26.0909 145.395 26.6023 147.338 27.625C149.281 28.6477 150.793 30.0852 151.872 31.9375C152.952 33.7898 153.491 35.9545 153.491 38.4318C153.491 40.9318 152.935 43.0966 151.821 44.9261C150.719 46.7557 149.168 48.1648 147.168 49.1534C145.179 50.142 142.855 50.6364 140.196 50.6364H131.196V43.2727H138.287C139.401 43.2727 140.349 43.0795 141.134 42.6932C141.929 42.2955 142.537 41.733 142.957 41.0057C143.389 40.2784 143.605 39.4205 143.605 38.4318C143.605 37.4318 143.389 36.5795 142.957 35.875C142.537 35.1591 141.929 34.6136 141.134 34.2386C140.349 33.8523 139.401 33.6591 138.287 33.6591H134.946V61H125.469ZM156.969 61V26.0909H172.037C174.628 26.0909 176.895 26.5625 178.838 27.5057C180.781 28.4489 182.293 29.8068 183.372 31.5795C184.452 33.3523 184.991 35.4773 184.991 37.9545C184.991 40.4545 184.435 42.5625 183.321 44.2784C182.219 45.9943 180.668 47.2898 178.668 48.1648C176.679 49.0398 174.355 49.4773 171.696 49.4773H162.696V42.1136H169.787C170.901 42.1136 171.849 41.9773 172.634 41.7045C173.429 41.4205 174.037 40.9716 174.457 40.358C174.889 39.7443 175.105 38.9432 175.105 37.9545C175.105 36.9545 174.889 36.142 174.457 35.517C174.037 34.8807 173.429 34.4148 172.634 34.1193C171.849 33.8125 170.901 33.6591 169.787 33.6591H166.446V61H156.969ZM177.423 44.9773L186.151 61H175.855L167.332 44.9773H177.423ZM222.849 43.5455C222.849 47.4318 222.094 50.7102 220.582 53.3807C219.071 56.0398 217.031 58.0568 214.463 59.4318C211.895 60.7955 209.031 61.4773 205.872 61.4773C202.69 61.4773 199.815 60.7898 197.247 59.4148C194.69 58.0284 192.656 56.0057 191.145 53.3466C189.645 50.6761 188.895 47.4091 188.895 43.5455C188.895 39.6591 189.645 36.3864 191.145 33.7273C192.656 31.0568 194.69 29.0398 197.247 27.6761C199.815 26.3011 202.69 25.6136 205.872 25.6136C209.031 25.6136 211.895 26.3011 214.463 27.6761C217.031 29.0398 219.071 31.0568 220.582 33.7273C222.094 36.3864 222.849 39.6591 222.849 43.5455ZM213.099 43.5455C213.099 41.4545 212.821 39.6932 212.264 38.2614C211.719 36.8182 210.906 35.7273 209.827 34.9886C208.759 34.2386 207.44 33.8636 205.872 33.8636C204.304 33.8636 202.98 34.2386 201.901 34.9886C200.832 35.7273 200.02 36.8182 199.463 38.2614C198.918 39.6932 198.645 41.4545 198.645 43.5455C198.645 45.6364 198.918 47.4034 199.463 48.8466C200.02 50.2784 200.832 51.3693 201.901 52.1193C202.98 52.858 204.304 53.2273 205.872 53.2273C207.44 53.2273 208.759 52.858 209.827 52.1193C210.906 51.3693 211.719 50.2784 212.264 48.8466C212.821 47.4034 213.099 45.6364 213.099 43.5455Z" fill="#0FBAC0"/>
</g>
<g filter="url(#filter1_d_33_5)">
<path d="M38.6818 61H25.25V26.0909H38.5455C42.1364 26.0909 45.2386 26.7898 47.8523 28.1875C50.4773 29.5739 52.5 31.5739 53.9205 34.1875C55.3523 36.7898 56.0682 39.9091 56.0682 43.5455C56.0682 47.1818 55.358 50.3068 53.9375 52.9205C52.517 55.5227 50.5057 57.5227 47.9034 58.9205C45.3011 60.3068 42.2273 61 38.6818 61ZM34.7273 52.9545H38.3409C40.0682 52.9545 41.5398 52.6761 42.7557 52.1193C43.983 51.5625 44.9148 50.6023 45.5511 49.2386C46.1989 47.875 46.5227 45.9773 46.5227 43.5455C46.5227 41.1136 46.1932 39.2159 45.5341 37.8523C44.8864 36.4886 43.9318 35.5284 42.6705 34.9716C41.4205 34.4148 39.8864 34.1364 38.0682 34.1364H34.7273V52.9545ZM69.9304 26.0909V61H60.4531V26.0909H69.9304ZM97.0923 37.6136C96.9446 37.0114 96.7116 36.483 96.3935 36.0284C96.0753 35.5625 95.6776 35.1705 95.2003 34.8523C94.7344 34.5227 94.1889 34.2784 93.5639 34.1193C92.9503 33.9489 92.2741 33.8636 91.5355 33.8636C89.9446 33.8636 88.5866 34.2443 87.4616 35.0057C86.348 35.767 85.4957 36.8636 84.9048 38.2955C84.3253 39.7273 84.0355 41.4545 84.0355 43.4773C84.0355 45.5227 84.3139 47.2727 84.8707 48.7273C85.4276 50.1818 86.2571 51.2955 87.3594 52.0682C88.4616 52.8409 89.831 53.2273 91.4673 53.2273C92.9105 53.2273 94.1094 53.017 95.0639 52.5966C96.0298 52.1761 96.7514 51.5795 97.2287 50.8068C97.706 50.0341 97.9446 49.125 97.9446 48.0795L99.581 48.25H91.6037V41.5H107.081V46.3409C107.081 49.5227 106.405 52.2443 105.053 54.5057C103.712 56.7557 101.859 58.483 99.4957 59.6875C97.1435 60.8807 94.4446 61.4773 91.3991 61.4773C88.0014 61.4773 85.0185 60.7557 82.4503 59.3125C79.8821 57.8693 77.8764 55.8125 76.4332 53.142C75.0014 50.4716 74.2855 47.2955 74.2855 43.6136C74.2855 40.7273 74.723 38.1705 75.598 35.9432C76.4844 33.7159 77.7116 31.8352 79.2798 30.3011C80.848 28.7557 82.6605 27.5909 84.7173 26.8068C86.7741 26.0114 88.9787 25.6136 91.331 25.6136C93.3991 25.6136 95.3196 25.9091 97.0923 26.5C98.8764 27.0795 100.45 27.9091 101.814 28.9886C103.189 30.0568 104.297 31.3239 105.138 32.7898C105.979 34.2557 106.49 35.8636 106.672 37.6136H97.0923ZM120.977 26.0909V61H111.5V26.0909H120.977ZM125.469 61V26.0909H140.537C143.128 26.0909 145.395 26.6023 147.338 27.625C149.281 28.6477 150.793 30.0852 151.872 31.9375C152.952 33.7898 153.491 35.9545 153.491 38.4318C153.491 40.9318 152.935 43.0966 151.821 44.9261C150.719 46.7557 149.168 48.1648 147.168 49.1534C145.179 50.142 142.855 50.6364 140.196 50.6364H131.196V43.2727H138.287C139.401 43.2727 140.349 43.0795 141.134 42.6932C141.929 42.2955 142.537 41.733 142.957 41.0057C143.389 40.2784 143.605 39.4205 143.605 38.4318C143.605 37.4318 143.389 36.5795 142.957 35.875C142.537 35.1591 141.929 34.6136 141.134 34.2386C140.349 33.8523 139.401 33.6591 138.287 33.6591H134.946V61H125.469ZM156.969 61V26.0909H172.037C174.628 26.0909 176.895 26.5625 178.838 27.5057C180.781 28.4489 182.293 29.8068 183.372 31.5795C184.452 33.3523 184.991 35.4773 184.991 37.9545C184.991 40.4545 184.435 42.5625 183.321 44.2784C182.219 45.9943 180.668 47.2898 178.668 48.1648C176.679 49.0398 174.355 49.4773 171.696 49.4773H162.696V42.1136H169.787C170.901 42.1136 171.849 41.9773 172.634 41.7045C173.429 41.4205 174.037 40.9716 174.457 40.358C174.889 39.7443 175.105 38.9432 175.105 37.9545C175.105 36.9545 174.889 36.142 174.457 35.517C174.037 34.8807 173.429 34.4148 172.634 34.1193C171.849 33.8125 170.901 33.6591 169.787 33.6591H166.446V61H156.969ZM177.423 44.9773L186.151 61H175.855L167.332 44.9773H177.423ZM222.849 43.5455C222.849 47.4318 222.094 50.7102 220.582 53.3807C219.071 56.0398 217.031 58.0568 214.463 59.4318C211.895 60.7955 209.031 61.4773 205.872 61.4773C202.69 61.4773 199.815 60.7898 197.247 59.4148C194.69 58.0284 192.656 56.0057 191.145 53.3466C189.645 50.6761 188.895 47.4091 188.895 43.5455C188.895 39.6591 189.645 36.3864 191.145 33.7273C192.656 31.0568 194.69 29.0398 197.247 27.6761C199.815 26.3011 202.69 25.6136 205.872 25.6136C209.031 25.6136 211.895 26.3011 214.463 27.6761C217.031 29.0398 219.071 31.0568 220.582 33.7273C222.094 36.3864 222.849 39.6591 222.849 43.5455ZM213.099 43.5455C213.099 41.4545 212.821 39.6932 212.264 38.2614C211.719 36.8182 210.906 35.7273 209.827 34.9886C208.759 34.2386 207.44 33.8636 205.872 33.8636C204.304 33.8636 202.98 34.2386 201.901 34.9886C200.832 35.7273 200.02 36.8182 199.463 38.2614C198.918 39.6932 198.645 41.4545 198.645 43.5455C198.645 45.6364 198.918 47.4034 199.463 48.8466C200.02 50.2784 200.832 51.3693 201.901 52.1193C202.98 52.858 204.304 53.2273 205.872 53.2273C207.44 53.2273 208.759 52.858 209.827 52.1193C210.906 51.3693 211.719 50.2784 212.264 48.8466C212.821 47.4034 213.099 45.6364 213.099 43.5455Z" fill="#0FBAC0"/>
</g>
<defs>
<filter id="filter0_f_33_5" x="0.25" y="0.613525" width="247.599" height="85.8638" filterUnits="userSpaceOnUse" color-interpolation-filters="sRGB">
<feFlood flood-opacity="0" result="BackgroundImageFix"/>
<feBlend mode="normal" in="SourceGraphic" in2="BackgroundImageFix" result="shape"/>
<feGaussianBlur stdDeviation="12.5" result="effect1_foregroundBlur_33_5"/>
</filter>
<filter id="filter1_d_33_5" x="21.25" y="21.6135" width="205.599" height="43.8638" filterUnits="userSpaceOnUse" color-interpolation-filters="sRGB">
<feFlood flood-opacity="0" result="BackgroundImageFix"/>
<feColorMatrix in="SourceAlpha" type="matrix" values="0 0 0 0 0 0 0 0 0 0 0 0 0 0 0 0 0 0 127 0" result="hardAlpha"/>
<feOffset/>
<feGaussianBlur stdDeviation="2"/>
<feComposite in2="hardAlpha" operator="out"/>
<feColorMatrix type="matrix" values="0 0 0 0 0.0588235 0 0 0 0 0.729412 0 0 0 0 0.752941 0 0 0 1 0"/>
<feBlend mode="normal" in2="BackgroundImageFix" result="effect1_dropShadow_33_5"/>
<feBlend mode="normal" in="SourceGraphic" in2="effect1_dropShadow_33_5" result="shape"/>
</filter>
</defs>
</svg>
